<?xml version="1.0" standalone="no"?>
<!DOCTYPE svg PUBLIC "-//W3C//DTD SVG 1.1//EN" "http://www.w3.org/Graphics/SVG/1.1/DTD/svg11.dtd" >
<svg xmlns="http://www.w3.org/2000/svg" xmlns:xlink="http://www.w3.org/1999/xlink" version="1.1" viewBox="-10 0 1020 1000">
   <path fill="currentColor"
d="M473 101q20 -17 33 -18q16 -2 39 17q59 49 127 76q80 32 171 32q24 0 30.5 1.5t14.5 6.5q11 7 14 17q6 14 12 43q11 53 11 114q0 31 -1.5 51t-6.5 47q-18 97 -68 180.5t-125.5 144.5t-168.5 92q-36 12 -45 12q-15 0 -54 -14q-48 -18 -97 -47q-62 -38 -112 -88
q-60 -61 -97 -137q-43 -88 -54 -192q-3 -30 -2 -68q3 -68 19 -123q7 -23 19 -32t35 -7q54 3 116 -12q106 -25 190 -96zM501 186q-36 29 -90 54q-100 48 -207 52h-16q-26 128 13 243q35 106 117 185q79 76 181 108l11 4l14 -5q115 -37 196 -125q76 -83 106 -191.5t7 -213.5
l-1 -5h-7q-18 0 -52 -5q-62 -9 -119 -28q-78 -28 -135 -73l-9 -7z" />
</svg>
